:SAMPLES-PER-SECOND 30
:FULLY-SPECIFIED
:DEGREES
164
root  5.117333405 37.60577825 2.226622274 -16.42102051 -55.48999786 7.655029297
lowerback  7.517590046 2.582400084 -1.45934999
upperback  2.365089893 3.310659885 0.5737550259
thorax  -1.882429957 1.638620019 1.108590007
lowerneck  -10.24650002 7.351779938 -2.539669991
upperneck  16.19960022 9.489080429 5.48789978
head  6.194149971 4.874169827 2.911339998
lclavicle  0 -9.442270133e-015 7.951389973e-016
lhumerus  -0.1133470014 -18.04840088 74.50550079
lradius  2.696661179e-031 -2.279662809e-031 139.7899933
lwrist  -7.062250077e-031 -3.531125038e-031 4.088049889
lhand  -1.496451383e-031 -27.76390076 20.11240005
lfingers  90 7.125020027 -90
lthumb  89.89689403 5.08795885 91.16245106
rclavicle  0 -9.442270133e-015 7.951389973e-016
rhumerus  3.532320023 24.61590004 -81.96520233
rradius  -2.433346914e-031 2.558840916e-031 133.5599976
rwrist  7.062250077e-031 1.765562519e-031 -9.251319885
rhand  -7.920061211e-032 -33.2840004 9.303460121
rfingers  -90 -7.125020027 -90
rthumb  -92.93752616 -24.25625642 -97.11982154
rfemur  -9.696660042 14.08520031 7.298150063
rtibia  -0 0 63.51950073
rfoot  -4.928221432e-032 -26.40940094 -5.815740108
rtoes  5.373923086 19.29304026 -105.8922705
lfemur  -8.763079643 -1.931010008 -6.358870029
ltibia  -0 0 54.51539993
lfoot  4.635563819e-032 -17.78989983 5.398439884
ltoes  -4.250644065 -19.5611806 -102.515957
165
root  4.975666587 37.31866671 2.408044357 -16.10601807 -55.84799957 6
lowerback  7.005899906 2.680399895 -0.4121089876
upperback  2.028290033 3.524960041 0.427985996
thorax  -1.880879998 1.749150038 0.370837003
lowerneck  -10.42380047 7.351669788 -2.129110098
upperneck  16.49720001 9.368450165 5.778480053
head  6.33010006 4.864250183 2.950180054
lclavicle  0 -9.442270133e-015 7.951389973e-016
lhumerus  -0.01473550033 -18.99679947 74.66400146
lradius  2.691880948e-031 -2.28530545e-031 139.6699982
lwrist  -7.062250077e-031 -1.765562519e-031 3.915230036
lhand  -1.496451383e-031 -27.76390076 20.11240005
lfingers  90 7.125020027 -90
lthumb  89.89689403 5.08795885 91.16245106
rclavicle  0 -9.442270133e-015 7.951389973e-016
rhumerus  3.499449968 23.84690094 -82.2276001
rradius  -2.427400754e-031 2.564482329e-031 133.427002
rwrist  1.412450015e-030 1.765562519e-031 -8.909749985
rhand  -7.920061211e-032 -33.2840004 9.303460121
rfingers  -90 -7.125020027 -90
rthumb  -92.93752616 -24.25625642 -97.11982154
rfemur  -8.471520424 13.76270008 8.602689743
rtibia  -0 0 64.21260071
rfoot  -0 -27.41690063 -6.946390152
rtoes  5.373923086 19.29304026 -105.8922705
lfemur  -7.092480183 -1.927680016 -5.152999878
ltibia  -0 0 55.08060074
lfoot  4.691874669e-032 -19.82119942 5.529829979
ltoes  -4.250644065 -19.5611806 -102.515957
166
root  4.827933424 37.04266586 2.605377783 -15.67199707 -56.0739975 4.179016113
lowerback  6.357649803 2.627099991 0.6032699943
upperback  1.824620008 3.526360035 0.4386560023
thorax  -1.670040011 1.751129985 -0.1568920016
lowerneck  -10.98779964 7.431879997 -2.200759888
upperneck  16.88879967 9.414520264 6.240170002
head  6.521800041 4.925350189 3.151760101
lclavicle  0 -9.442270133e-015 7.951389973e-016
lhumerus  0.1382839978 -19.16629982 75.00019836
lradius  2.681924203e-031 -2.296982065e-031 139.4210052
lwrist  -3.531125038e-031 -1.765562519e-031 3.568069935
lhand  -1.496451383e-031 -27.76390076 20.11240005
lfingers  90 7.125020027 -90
lthumb  89.89689403 5.08795885 91.16245106
rclavicle  0 -9.442270133e-015 7.951389973e-016
rhumerus  3.842519999 23.42620087 -82.125
rradius  -2.420095531e-031 2.571377385e-031 133.2640076
rwrist  0 -3.531125038e-031 -8.823360443
rhand  -7.920061211e-032 -33.2840004 9.303460121
rfingers  -90 -7.125020027 -90
rthumb  -92.93752616 -24.25625642 -97.11982154
rfemur  -7.166689873 13.2421999 9.890350342
rtibia  -0 0 64.89160156
rfoot  -0 -28.15600014 -7.95152998
rtoes  5.373923086 19.29304026 -105.8922705
lfemur  -5.454820156 -2.06539011 -3.946880102
ltibia  -0 0 55.479599
lfoot  4.758239569e-032 -21.93099976 5.210859776
ltoes  -4.250644065 -19.5611806 -102.515957
167
root  4.674422272 36.78044297 2.803444487 -14.89599609 -56.16899872 2.143005371
lowerback  5.393839836 2.455539942 1.521350026
upperback  1.618299961 3.347840071 0.6151720285
thorax  -1.304730058 1.664829969 -0.4331389964
lowerneck  -11.55729961 7.570720196 -2.627370119
upperneck  17.31990051 9.584679604 6.822720051
head  6.695310116 5.036789894 3.459180117
lclavicle  0 -9.442270133e-015 7.951389973e-016
lhumerus  0.1889449954 -19.11790085 75.58319855
lradius  2.673527604e-031 -2.306749702e-031 139.2120056
lwrist  0 1.765562519e-031 3.123090029
lhand  -1.496451383e-031 -27.76390076 20.11240005
lfingers  90 7.125020027 -90
lthumb  89.89689403 5.08795885 91.16245106
rclavicle  0 -9.442270133e-015 7.951389973e-016
rhumerus  4.451300144 23.25060081 -81.84970093
rradius  -2.408266877e-031 2.582459038e-031 133.0010071
rwrist  0 -3.531125038e-031 -9.020170212
rhand  -7.920061211e-032 -33.2840004 9.303460121
rfingers  -90 -7.125020027 -90
rthumb  -92.93752616 -24.25625642 -97.11982154
rfemur  -6.046219826 12.65209961 11.19639969
rtibia  -0 0 65.57479858
rfoot  -0 -28.78549957 -8.036049843
rtoes  5.373923086 19.29304026 -105.8922705
lfemur  -4.146689892 -2.30050993 -2.665610075
ltibia  -0 0 55.77190018
lfoot  9.643918278e-032 -23.74080086 4.602930069
ltoes  -4.250644065 -19.5611806 -102.515957
168
root  4.500199866 36.53711034 3.000955507 -15.3380127 -55.88300323 1.380004883
lowerback  4.431190014 2.300179958 1.552600026
upperback  1.460579991 3.128969908 0.6013690233
thorax  -0.931613028 1.559710026 -0.4119569957
lowerneck  -12.04319954 7.658360004 -2.98755002
upperneck  17.78560066 9.67043972 7.40681982
head  6.872389793 5.111909866 3.75090003
lclavicle  0 -9.442270133e-015 7.951389973e-016
lhumerus  0.217415005 -19.26650047 76.23590088
lradius  2.666752407e-031 -2.314578933e-031 139.0440063
lwrist  -7.062250077e-031 -0 2.778019905
lhand  -1.496451383e-031 -27.76390076 20.11240005
lfingers  90 7.125020027 -90
lthumb  89.89689403 5.08795885 91.16245106
rclavicle  0 -9.442270133e-015 7.951389973e-016
rhumerus  5.138299942 22.87689972 -81.52110291
rradius  -2.388908462e-031 2.600376972e-031 132.572998
rwrist  7.062250077e-031 -0 -9.489769936
rhand  -7.920061211e-032 -33.2840004 9.303460121
rfingers  -90 -7.125020027 -90
rthumb  -92.93752616 -24.25625642 -97.11982154
rfemur  -4.639369965 12.00739956 11.58510017
rtibia  -0 0 66.23750305
rfoot  -0 -29.54579926 -7.331540108
rtoes  5.373923086 19.29304026 -105.8922705
lfemur  -2.796629906 -2.645669937 -2.291949987
ltibia  -0 0 56.0379982
lfoot  4.877403936e-032 -25.1807003 4.554950237
ltoes  -4.250644065 -19.5611806 -102.515957
